<?xml version="1.0" encoding="UTF-8" standalone="no"?>
<!-- Created with Inkscape (http://www.inkscape.org/) -->

<svg
   width="128mm"
   height="128mm"
   viewBox="0 0 128 128"
   version="1.1"
   id="svg1"
   xml:space="preserve"
   xmlns="http://www.w3.org/2000/svg"
   xmlns:svg="http://www.w3.org/2000/svg"><defs
     id="defs1" /><path
     style="fill:#1c1c1d;stroke-width:0.136601"
     d="M 14.86892,86.457948 C 14.71844,72.103411 10.82475,64.855382 5.35131,59.027635 L 6.34829,15.542625 C 44.712571,1.5795253 83.287429,1.5795253 121.65171,15.542625 l 0.99698,43.48501 c -5.47344,5.827747 -9.36713,13.075776 -9.51761,27.430313 L 64,122.92107 Z"
     id="path3167" /><path
     style="fill:#2c2d31;stroke-width:0.132796"
     d="m 64,56.900344 47.28135,-35.576118 -0.0622,65.083477 C 98.360649,99.427467 64,115.47031 64,115.47031 Z"
     id="path3168" /><g
     id="layer2"
     transform="matrix(1.0973354,0,0,1.0188785,-20.52961,-10.923955)"><g
       id="g1048576"
       style="display:inline"><path
         style="fill:#dc9d2e;stroke:none"
         d="m 33.32138,123.494 0.055,-46.679958 6.15916,-9.400827 62.4846,-14.819904 62.4846,14.819904 6.15916,9.400827 0.055,46.679958 7.85338,-6.60566 L 178.55398,75.7131 171.35505,61.77395 102.02014,44.990694 32.68523,61.77395 25.4863,75.7131 25.468,116.88834 Z M 102.02019,71.89654 c -15.427314,7.32611 -57.60343,31.408898 9.14816,76.201828 0.59091,-10.03752 -8.85901,-16.004 -15.974005,-21.81528 -17.498204,-14.28046 -16.561768,-36.127718 6.825845,-45.456685 0.28607,0.04859 13.91221,5.906437 17.30925,13.969738 1.67665,3.979784 1.68291,7.943257 1.07648,8.789197 -1.25182,1.74619 -5.02331,3.11818 -4.99094,4.18969 2.34813,2.82188 11.44641,9.72898 12.58745,9.92071 -0.50903,-6.24026 0.74484,-12.49029 0.20173,-18.716016 C 126.46242,85.03254 114.09785,76.96368 102.02008,71.89654 m 61.76893,86.38724 0.32417,-75.965026 c 0.0187,-4.386259 -2.75844,-6.728773 -5.42515,-10.07751 l -1.0154,83.840646 -55.65264,46.30686 L 46.36765,156.08189 45.35225,72.241244 c -2.66671,3.348737 -5.44385,5.69125 -5.42515,10.07751 l 0.32417,75.965026 61.76887,52.32595 M 102.02009,179.20174 c 15.427314,-7.32611 57.60343,-31.408898 -9.14816,-76.201828 -0.59091,10.03752 8.85901,16.004 15.974005,21.81528 17.498204,14.28046 16.561768,36.127718 -6.825845,45.456685 -0.28607,-0.04859 -13.91221,-5.906437 -17.30925,-13.969738 -1.67665,-3.979784 -1.68291,-7.943257 -1.07648,-8.789197 1.25182,-1.74619 5.02331,-3.11818 4.99094,-4.18969 -2.34813,-2.82188 -11.44641,-9.72898 -12.58745,-9.92071 0.50903,6.24026 -0.74484,12.49029 -0.20173,18.716016 C 77.57786,166.06574 89.94243,174.1346 102.0202,179.20174"
         id="path1048576"
         transform="matrix(0.75853797,0,0,0.75853797,-0.35524606,-23.405601)" /></g></g></svg>
